{
  "accessors": [
    {
      "bufferView": 2,
      "componentType": 5126,
      "count": 3638,
      "max": [
        0.06986500322818756,
        8.017839431762695,
        2.1986498832702637
      ],
      "min": [
        -0.06986500322818756,
        -5.717840194702148,
        -2.1986498832702637
      ],
      "type": "VEC3"
    },
    {
      "bufferView": 2,
      "byteOffset": 43656,
      "componentType": 5126,
      "count": 3638,
      "max": [
        1.0,
        0.9914475083351135,
        0.9914475083351135
      ],
      "min": [
        -1.0,
        -0.9914475083351135,
        -0.9914475083351135
      ],
      "type": "VEC3"
    },
    {
      "bufferView": 1,
      "componentType": 5126,
      "count": 3638,
      "max": [
        0.9630299806594849,
        0.9987499713897705
      ],
      "min": [
        0.0012959999730810523,
        0.3577269911766052
      ],
      "type": "VEC2"
    },
    {
      "bufferView": 0,
      "componentType": 5125,
      "count": 8466,
      "type": "SCALAR"
    }
  ],
  "asset": {
    "extras": {
      "author": "Dima Kulyashov (https://sketchfab.com/DimaKulyashov)",
      "license": "CC-BY-4.0 (http://creativecommons.org/licenses/by/4.0/)",
      "source": "https://sketchfab.com/3d-models/old-cassette-2-2-cb4ae785ca4c42c28bd71adbecfbbb51",
      "title": "Old cassette 2 - Старые кассеты 2"
    },
    "generator": "Sketchfab-16.16.0",
    "version": "2.0"
  },
  "bufferViews": [
    {
      "buffer": 0,
      "byteLength": 33864,
      "name": "floatBufferViews",
      "target": 34963
    },
    {
      "buffer": 0,
      "byteLength": 29104,
      "byteOffset": 33864,
      "byteStride": 8,
      "name": "floatBufferViews",
      "target": 34962
    },
    {
      "buffer": 0,
      "byteLength": 87312,
      "byteOffset": 62968,
      "byteStride": 12,
      "name": "floatBufferViews",
      "target": 34962
    }
  ],
  "buffers": [
    {
      "byteLength": 150280,
      "uri": "scene.bin"
    }
  ],
  "extensionsRequired": [
    "KHR_materials_pbrSpecularGlossiness"
  ],
  "extensionsUsed": [
    "KHR_materials_pbrSpecularGlossiness"
  ],
  "images": [
    {
      "uri": "textures/Material.001_diffuse.png"
    }
  ],
  "materials": [
    {
      "doubleSided": true,
      "extensions": {
        "KHR_materials_pbrSpecularGlossiness": {
          "diffuseFactor": [
            1.0,
            1.0,
            1.0,
            1.0
          ],
          "diffuseTexture": {
            "index": 0
          },
          "glossinessFactor": 0.4,
          "specularFactor": [
            0.0,
            0.0,
            0.0
          ]
        }
      },
      "name": "Material.001"
    }
  ],
  "meshes": [
    {
      "name": "Object_0",
      "primitives": [
        {
          "attributes": {
            "NORMAL": 1,
            "POSITION": 0,
            "TEXCOORD_0": 2
          },
          "indices": 3,
          "material": 0,
          "mode": 4
        }
      ]
    }
  ],
  "nodes": [
    {
      "children": [
        1
      ],
      "matrix": [
        0.6148616075515747,
        0.0,
        0.0,
        0.0,
        0.0,
        1.3652670273235905e-16,
        -0.6148616075515747,
        0.0,
        0.0,
        0.6148616075515747,
        1.3652670273235905e-16,
        0.0,
        0.0,
        0.0,
        0.0,
        1.0
      ],
      "name": "Sketchfab_model"
    },
    {
      "children": [
        2
      ],
      "name": "8860643af259427c8750decc8c3568f7.obj.cleaner.materialmerger.gles"
    },
    {
      "mesh": 0,
      "name": "Object_2"
    }
  ],
  "samplers": [
    {
      "magFilter": 9729,
      "minFilter": 9987,
      "wrapS": 10497,
      "wrapT": 10497
    }
  ],
  "scene": 0,
  "scenes": [
    {
      "name": "Sketchfab_Scene",
      "nodes": [
        0
      ]
    }
  ],
  "textures": [
    {
      "sampler": 0,
      "source": 0
    }
  ]
}
